<?xml version="1.0" encoding="utf-8"?>
<!-- Generator: Adobe Illustrator 21.0.2, SVG Export Plug-In . SVG Version: 6.00 Build 0)  -->
<svg version="1.1" id="Layer_2" xmlns="http://www.w3.org/2000/svg" xmlns:xlink="http://www.w3.org/1999/xlink" x="0px" y="0px"
	 viewBox="0 0 1324.8 255.8" style="enable-background:new 0 0 1324.8 255.8;" xml:space="preserve">
<style type="text/css">
	.st0{fill:#00DDE2;}
</style>
<g id="Layer_2">
	<g>
		<g>
			<path class="st0" d="M2.7,134.9C14.1,70.5,62.8,0.1,134.9,0c25.8,0,63.6,10.9,57.9,42.9c-3.1,17.2-16.7,27-35.4,27
				c-12.2,0,9.1-27.9-28.6-27.8c-43.3,0.1-69.6,44.3-76.2,81.4C42.7,180.2,77.2,203,103,203c48.4-0.1,60.2-43.4,62.9-43.4
				c4.2,0,2.3,23.7,1.8,26.7c-7.8,43.9-46.2,69.5-87.7,69.5C12.6,255.9-8,194.8,2.7,134.9z"/>
		</g>
		<g>
			<path class="st0" d="M261.3,131.4c8.5-1.5,15.3-2.9,16.9-12.3c2.5-14.6-11.4-22.2-23.9-22.2c-29.1,0.1-29,24.6-35.3,24.7
				c-9.1,0-17.2-11.1-15.2-23.4c3.6-21.1,29.6-34.9,55.9-35c9.1,0,48.3-0.4,56.1,39.5c3.2,16.5-10.6,101.1-12.3,111
				c-2.1,12.6-1.1,20-2.8,29.7c-1,6-28,6.7-53.4,6.7c-68.8,0.2-67.7-35.2-64.8-52.3C188.7,161.9,228.3,137,261.3,131.4z
				 M270.5,181.4c1.7-10,5.4-22-8.3-21.9c-16.8,0.1-37,14.4-39.9,31.8c-2.7,16,9.7,25.4,24.8,25.3c16.8-0.1,18.9-8.6,21.2-22.6
				L270.5,181.4z"/>
		</g>
		<g>
			<path class="st0" d="M427,13.4c-1.3,7.7-19.1,43.2-19.7,46.7c-0.9,5.1,0,8.6,4.6,8.6c3.9,0,4.9-0.9,8.8-0.9
				c11.5,0,10.5,7.7,8.8,17.4c-0.7,4-2.6,14.8-8.9,14.8c-2.4,0-5.1-3.1-10.6-3.1c-16.6,0-19.8,18.3-24.2,43.7
				c-13.1,75.9,0.3,88-0.5,92.9c-0.7,4.3-36.5,20-43.5,20c-11.5,0-3-63.6-0.3-79.3c6.1-35.1,10.3-48.8,11.2-54.2
				c1.5-8.6,7.8-22.9-5.9-22.9c-5.4,0-8.2,4.6-11.5,4.6c-3.9,0-3-3.7-2.1-8.8c3.7-21.7,7.8-25.5,19.3-25.5c1.2,0,5.3,1.1,7.7,1.1
				c9.4,0,16.2-32.1,19.5-42.1c3.4-10.8,38.7-18.8,44.7-18.8C426.5,7.4,427.9,7.9,427,13.4z"/>
		</g>
		<g>
			<path class="st0" d="M525.8,46.8c-14.1,0-31.5,8.6-34.1,25.2c-3.2,20.6,26.8,27,41.4,32.7c56,21,58.6,50.8,54.4,78
				c-5.2,33.2-37.8,72.7-97.2,71.7c-40-0.7-76.1-22-69-67.5c3.8-24.4,22.3-38.5,25.1-38.4c4.8,0.1-9.3,56.8,51.2,57.8
				c21.4,0.4,41.5-8.8,44.2-26.6c3.3-20.9-20.5-28.5-36-33.9c-58.6-20.5-60.2-48.3-56.4-72.7c3.8-24.1,29-66.7,86.1-65.7
				c40.8,0.7,66.7,21.7,65.4,30c-1.3,8-21.9,35-29.8,34.9C564,72.2,560.3,46.8,525.8,46.8z"/>
		</g>
		<g>
			<path class="st0" d="M684.7,7.4c2.6,0,4.1,3.1,3.6,6c-0.7,4-16.5,31.8-20.4,54.6c-0.6,3.4-1.5,8.8,3.4,8.8
				c2.3,0,7.4-2.6,14.3-6.3c7.2-3.4,15.9-6.8,25.4-6.8c26.2,0,42.3,18.5,30.4,87c-4.7,27.3-21.3,99.2-30.2,99.2h-30
				c-2.6,0-10.5,0.9-9.7-3.7c0.3-2,24.5-58.3,31.1-96.1c7.7-44.1,1.7-52.9-12.4-52.9c-29.4,0-37.7,44.3-41.2,64.5
				c-9.9,56.8-6.8,75.3-8.2,83.6c-0.8,4.5-6.3,4.5-9.1,4.5h-28.5c-8.4,0-10,9.7,11.9-116.5c4-22.7,22.5-125.9,38.3-125.9H684.7z"/>
		</g>
		<g>
			<path class="st0" d="M761.1,250.8c-14.4,0-16.6,5.9,0.6-92.5c16.7-95.6,17.5-77.4,27-75.1c7,1.7,14.6,1.4,20,0
				c5.6-1.5,8.8-1.9,8.2,1.5C815,95,812,96.8,806.7,127.2c-12.3,70.4-8.4,113.8-8.8,116.3c-1.6,8.9-10.1,7.3-16.8,7.3H761.1z"/>
		</g>
		<g>
			<path class="st0" d="M831.3,250.8c-10.7,0-17.5,8.8-0.5-85.6c14.2-79.1,15.1-96.8,23.2-97h24c4.3,0,9.8-1.4,9.1,4
				c-0.2,4.3-0.6,9.7,5.2,9.7c4.3,0,10.1-4.6,16.9-9.1c6.8-4.3,14.6-8.8,22.4-8.8c14.7,0,24.6,12.6,21.8,28c-3.6,20-22.2,32-30.9,32
				c-3.5,0,4-19.1-15.9-19.1c-24.3,0-32.9,38.5-36,55.7c-10.2,56.8-4.7,80.8-5.6,85.9c-1.1,4.6-7.5,4.6-10.6,4.6H831.3z"/>
		</g>
		<g>
			<path class="st0" d="M1061,13.4c-1.3,7.7-19.1,43.2-19.7,46.7c-0.9,5.1,0,8.6,4.6,8.6c3.9,0,4.9-0.9,8.8-0.9
				c11.5,0,10.5,7.7,8.8,17.4c-0.7,4-2.6,14.8-8.9,14.8c-2.4,0-5.1-3.1-10.6-3.1c-16.6,0-19.8,18.3-24.2,43.7
				c-13.1,75.9,0.3,88-0.5,92.9c-0.7,4.3-36.5,20-43.5,20c-11.5,0-3-63.6-0.3-79.3c6.1-35.1,10.3-48.8,11.2-54.2
				c1.5-8.6,7.8-22.9-5.9-22.9c-5.4,0-8.2,4.6-11.5,4.6c-3.9,0-3-3.7-2.1-8.8c3.7-21.7,7.8-25.5,19.3-25.5c1.2,0,5.3,1.1,7.7,1.1
				c9.4,0,16.2-32.1,19.5-42.1c3.4-10.8,38.7-18.8,44.7-18.8C1060.5,7.4,1061.9,7.9,1061,13.4z"/>
		</g>
		<g>
			<path class="st0" d="M1069.7,247c-11.7,5.7-24,5.2-22.4-4.2c11.5-68.8,91-127,92.4-135.3c0.9-5.4-8.7-5.7-12.2-5.7
				c-24.8,0-31.9,7.4-37.2,7.4c-6.1,0-4.8-34-4.3-37.4c0.8-4.9,11.8-3.8,14.8-3.8c0,0,14.4,1.9,46.6,1.9c32.2,0,34.9-1.5,37.9-1.7
				c3-0.1,11.4-1.5,9.8,8.5c-1.8,7.4-4.8,27.9-9,33.6c-12.6,17.7-76.7,71.9-81.4,100.4c-1,5.7,8.8-0.2,18.8-1.2
				c68.3-6.5,94.7,24.2,136.5,8.2c23.4-8.9,19.6-26.3,24.8-43.5c3.6-12.1,14.5-24.1,28-20.5c17.7,4.7,16.5,44.8-6.3,68.7
				c-53.3,55.7-92.5,13.3-164.5,8C1096.3,227.1,1081.3,241.4,1069.7,247z"/>
		</g>
		<g>
			<path class="st0" d="M790,15.7c11.2-4.5,22.9-4.5,30.1-1.2c3.5-4.2,4.2-2.9,7-6.4s3.1-6.2,5.1-5.2c1,0.5,1.1,3.9,1.1,7.6
				c0,4.1-1.2,12.1-1.8,14.8c2.5,2.8,4.3,9.9,3.2,16.6c6.7-2,17-4.1,18.9-3.4c0.3,0.1,0.8,1.3-0.1,1.3c-8,0.3-15.9,3.1-19.2,4.3
				c-0.2,1.1-0.5,2-0.9,2.8c13-0.2,19.9,3.4,21.5,4c0.5,0.2-0.1,1.7-0.7,1.5c-3.4-1.1-10.4-4.2-21.7-3.7c-0.5,0.8-0.9,1.4-1.6,2.1
				c6.6,1.8,14.4,7.2,14.6,7.9c0.1,0.3,0.1,1.8-0.7,1.3c-2.5-1.4-8.5-6.7-15.2-7.9c-1.5,1.6-4.2,4.1-6.1,5
				c-6.5,3.2-14.8,10.4-25.6,10.1c-10.1-0.2-12.7-6.2-19.2-11.6c-0.7-0.6-1.9-1.7-2.5-2.5c-2.2,0.2-8.2,2.3-16.2,7
				c-0.6,0.4-1.3-0.9-1-1.2c2.7-2.8,13-6.9,16.3-7.5c-0.3-0.6-1-1.6-1.3-2.2c-2.9-0.5-16.1,0.3-24,1.5c-0.5,0.1-0.7-1.5-0.3-1.7
				c2.2-1.2,21.5-1.9,23.7-1.6c-0.3-0.9-0.5-2-0.7-2.9c-3.2-1.6-16.4-4.3-19.9-4.6c-0.5-0.1-0.6-1.8,0-1.9
				c3.9-0.1,15.8,2.7,19.5,4.1c-0.7-5.8,0.9-11.6,5.7-15.9c0,0,0.2-1.2-0.1-3.1c-0.7-3.3-2.1-8.7-2.5-12.6c-0.3-2.6,0-4.6,0.8-4.9
				c0.7-0.2,1.8,0.7,3.8,2.2C784.5,11,790,15.7,790,15.7z"/>
		</g>
	</g>
</g>
</svg>
